<svg xmlns="http://www.w3.org/2000/svg" viewBox="0 0 64 64" width="64" height="64">
  <!-- Clipboard/notepad favicon -->

  <!-- Clipboard body -->
  <rect x="14" y="16" width="36" height="40" rx="4" fill="#6c8cff"/>

  <!-- Clipboard clip -->
  <rect x="24" y="11" width="16" height="10" rx="3" fill="#8aa4ff" stroke="#4a66cc" stroke-width="1.5"/>
  <rect x="28" y="8" width="8" height="7" rx="3.5" fill="none" stroke="#4a66cc" stroke-width="2"/>

  <!-- Paper area -->
  <rect x="18" y="22" width="28" height="30" rx="2" fill="#e8edf8"/>

  <!-- Checklist lines with checkmarks -->
  <path d="M22 29 L24 31 L28 26" stroke="#4ade80" stroke-width="2.5" fill="none" stroke-linecap="round" stroke-linejoin="round"/>
  <line x1="31" y1="29" x2="42" y2="29" stroke="#8494b8" stroke-width="2" stroke-linecap="round"/>

  <path d="M22 37 L24 39 L28 34" stroke="#4ade80" stroke-width="2.5" fill="none" stroke-linecap="round" stroke-linejoin="round"/>
  <line x1="31" y1="37" x2="42" y2="37" stroke="#8494b8" stroke-width="2" stroke-linecap="round"/>

  <path d="M22 45 L24 47 L28 42" stroke="#fbbf24" stroke-width="2.5" fill="none" stroke-linecap="round" stroke-linejoin="round"/>
  <line x1="31" y1="45" x2="38" y2="45" stroke="#8494b8" stroke-width="2" stroke-linecap="round"/>

  <!-- Pen -->
  <line x1="42" y1="52" x2="52" y2="36" stroke="#2d3348" stroke-width="3" stroke-linecap="round"/>
  <line x1="52" y1="36" x2="54" y2="32" stroke="#6c8cff" stroke-width="3" stroke-linecap="round"/>
</svg>
